<svg width="231" height="30" viewBox="0 0 231 30" fill="none" xmlns="http://www.w3.org/2000/svg">
<path d="M17.892 24.212H7.884L6.228 29H0.936L9.972 3.836H15.84L24.876 29H19.548L17.892 24.212ZM16.524 20.18L12.888 9.668L9.252 20.18H16.524ZM26.9575 18.956C26.9575 16.94 27.3535 15.152 28.1455 13.592C28.9615 12.032 30.0655 10.832 31.4575 9.992C32.8495 9.152 34.3975 8.732 36.1015 8.732C37.3975 8.732 38.6335 9.02 39.8095 9.596C40.9855 10.148 41.9215 10.892 42.6175 11.828V2.36H47.7295V29H42.6175V26.048C41.9935 27.032 41.1175 27.824 39.9895 28.424C38.8615 29.024 37.5535 29.324 36.0655 29.324C34.3855 29.324 32.8495 28.892 31.4575 28.028C30.0655 27.164 28.9615 25.952 28.1455 24.392C27.3535 22.808 26.9575 20.996 26.9575 18.956ZM42.6535 19.028C42.6535 17.804 42.4135 16.76 41.9335 15.896C41.4535 15.008 40.8055 14.336 39.9895 13.88C39.1735 13.4 38.2975 13.16 37.3615 13.16C36.4255 13.16 35.5615 13.388 34.7695 13.844C33.9775 14.3 33.3295 14.972 32.8255 15.86C32.3455 16.724 32.1055 17.756 32.1055 18.956C32.1055 20.156 32.3455 21.212 32.8255 22.124C33.3295 23.012 33.9775 23.696 34.7695 24.176C35.5855 24.656 36.4495 24.896 37.3615 24.896C38.2975 24.896 39.1735 24.668 39.9895 24.212C40.8055 23.732 41.4535 23.06 41.9335 22.196C42.4135 21.308 42.6535 20.252 42.6535 19.028ZM77.42 8.768C79.868 8.768 81.836 9.524 83.324 11.036C84.836 12.524 85.592 14.612 85.592 17.3V29H80.552V17.984C80.552 16.424 80.156 15.236 79.364 14.42C78.572 13.58 77.492 13.16 76.124 13.16C74.756 13.16 73.664 13.58 72.848 14.42C72.056 15.236 71.66 16.424 71.66 17.984V29H66.62V17.984C66.62 16.424 66.224 15.236 65.432 14.42C64.64 13.58 63.56 13.16 62.192 13.16C60.8 13.16 59.696 13.58 58.88 14.42C58.088 15.236 57.692 16.424 57.692 17.984V29H52.652V9.056H57.692V11.468C58.34 10.628 59.168 9.968 60.176 9.488C61.208 9.008 62.336 8.768 63.56 8.768C65.12 8.768 66.512 9.104 67.736 9.776C68.96 10.424 69.908 11.36 70.58 12.584C71.228 11.432 72.164 10.508 73.388 9.812C74.636 9.116 75.98 8.768 77.42 8.768ZM92.9306 6.68C92.0426 6.68 91.2986 6.404 90.6986 5.852C90.1226 5.276 89.8346 4.568 89.8346 3.728C89.8346 2.888 90.1226 2.192 90.6986 1.64C91.2986 1.064 92.0426 0.775999 92.9306 0.775999C93.8186 0.775999 94.5506 1.064 95.1266 1.64C95.7266 2.192 96.0266 2.888 96.0266 3.728C96.0266 4.568 95.7266 5.276 95.1266 5.852C94.5506 6.404 93.8186 6.68 92.9306 6.68ZM95.4146 9.056V29H90.3746V9.056H95.4146ZM111.446 8.768C113.822 8.768 115.742 9.524 117.206 11.036C118.67 12.524 119.402 14.612 119.402 17.3V29H114.362V17.984C114.362 16.4 113.966 15.188 113.174 14.348C112.382 13.484 111.302 13.052 109.934 13.052C108.542 13.052 107.438 13.484 106.622 14.348C105.83 15.188 105.434 16.4 105.434 17.984V29H100.394V9.056H105.434V11.54C106.106 10.676 106.958 10.004 107.99 9.524C109.046 9.02 110.198 8.768 111.446 8.768Z" fill="white"/>
<path d="M151.097 11.648C151.097 12.992 150.773 14.252 150.125 15.428C149.501 16.604 148.505 17.552 147.137 18.272C145.793 18.992 144.089 19.352 142.025 19.352H137.813V29H132.773V3.872H142.025C143.969 3.872 145.625 4.208 146.993 4.88C148.361 5.552 149.381 6.476 150.053 7.652C150.749 8.828 151.097 10.16 151.097 11.648ZM141.809 15.284C143.201 15.284 144.233 14.972 144.905 14.348C145.577 13.7 145.913 12.8 145.913 11.648C145.913 9.2 144.545 7.976 141.809 7.976H137.813V15.284H141.809ZM153.379 18.956C153.379 16.94 153.775 15.152 154.567 13.592C155.383 12.032 156.475 10.832 157.843 9.992C159.235 9.152 160.783 8.732 162.487 8.732C163.975 8.732 165.271 9.032 166.375 9.632C167.503 10.232 168.403 10.988 169.075 11.9V9.056H174.151V29H169.075V26.084C168.427 27.02 167.527 27.8 166.375 28.424C165.247 29.024 163.939 29.324 162.451 29.324C160.771 29.324 159.235 28.892 157.843 28.028C156.475 27.164 155.383 25.952 154.567 24.392C153.775 22.808 153.379 20.996 153.379 18.956ZM169.075 19.028C169.075 17.804 168.835 16.76 168.355 15.896C167.875 15.008 167.227 14.336 166.411 13.88C165.595 13.4 164.719 13.16 163.783 13.16C162.847 13.16 161.983 13.388 161.191 13.844C160.399 14.3 159.751 14.972 159.247 15.86C158.767 16.724 158.527 17.756 158.527 18.956C158.527 20.156 158.767 21.212 159.247 22.124C159.751 23.012 160.399 23.696 161.191 24.176C162.007 24.656 162.871 24.896 163.783 24.896C164.719 24.896 165.595 24.668 166.411 24.212C167.227 23.732 167.875 23.06 168.355 22.196C168.835 21.308 169.075 20.252 169.075 19.028ZM190.126 8.768C192.502 8.768 194.422 9.524 195.886 11.036C197.35 12.524 198.082 14.612 198.082 17.3V29H193.042V17.984C193.042 16.4 192.646 15.188 191.854 14.348C191.062 13.484 189.982 13.052 188.614 13.052C187.222 13.052 186.118 13.484 185.302 14.348C184.51 15.188 184.114 16.4 184.114 17.984V29H179.074V9.056H184.114V11.54C184.786 10.676 185.638 10.004 186.67 9.524C187.726 9.02 188.878 8.768 190.126 8.768ZM221.415 18.596C221.415 19.316 221.367 19.964 221.271 20.54H206.691C206.811 21.98 207.315 23.108 208.203 23.924C209.091 24.74 210.183 25.148 211.479 25.148C213.351 25.148 214.683 24.344 215.475 22.736H220.911C220.335 24.656 219.231 26.24 217.599 27.488C215.967 28.712 213.963 29.324 211.587 29.324C209.667 29.324 207.939 28.904 206.403 28.064C204.891 27.2 203.703 25.988 202.839 24.428C201.999 22.868 201.579 21.068 201.579 19.028C201.579 16.964 201.999 15.152 202.839 13.592C203.679 12.032 204.855 10.832 206.367 9.992C207.879 9.152 209.619 8.732 211.587 8.732C213.483 8.732 215.175 9.14 216.663 9.956C218.175 10.772 219.339 11.936 220.155 13.448C220.995 14.936 221.415 16.652 221.415 18.596ZM216.195 17.156C216.171 15.86 215.703 14.828 214.791 14.06C213.879 13.268 212.763 12.872 211.443 12.872C210.195 12.872 209.139 13.256 208.275 14.024C207.435 14.768 206.919 15.812 206.727 17.156H216.195ZM230.133 2.36V29H225.093V2.36H230.133Z" fill="#0096C7"/>
</svg>
